<?xml version="1.0" standalone="no"?>
<!DOCTYPE svg PUBLIC "-//W3C//DTD SVG 20010904//EN"
 "http://www.w3.org/TR/2001/REC-SVG-20010904/DTD/svg10.dtd">
<svg version="1.0" xmlns="http://www.w3.org/2000/svg"
 width="200.000000pt" height="200.000000pt" viewBox="0 0 200.000000 200.000000"
 preserveAspectRatio="xMidYMid meet">

<g transform="translate(0.000000,200.000000) scale(0.100000,-0.100000)"
fill="#000000" stroke="none">
<path d="M0 1000 l0 -1000 1000 0 1000 0 0 1000 0 1000 -1000 0 -1000 0 0
-1000z m1091 655 c94 -33 167 -122 195 -238 l17 -67 143 0 c78 0 145 -4 149
-9 9 -16 -36 -883 -48 -926 -8 -26 -23 -47 -46 -62 l-34 -23 -470 0 c-455 0
-471 1 -503 20 -19 12 -37 34 -43 53 -12 36 -55 923 -46 937 4 6 70 10 150 10
l143 0 11 52 c18 80 46 134 98 186 76 76 185 102 284 67z"/>
<path d="M915 1562 c-49 -30 -93 -88 -110 -144 -8 -28 -15 -55 -15 -60 0 -4
94 -8 210 -8 116 0 210 4 210 8 0 5 -7 32 -16 61 -16 56 -69 123 -115 147 -40
20 -127 18 -164 -4z"/>
<path d="M943 1171 c-83 -21 -143 -85 -143 -153 0 -78 50 -133 155 -173 124
-47 143 -57 172 -87 35 -37 39 -103 8 -138 -62 -69 -228 -65 -308 8 -18 16
-20 16 -33 -3 -20 -27 -18 -32 24 -59 40 -27 137 -56 187 -56 175 0 276 179
163 287 -37 35 -81 58 -185 97 -120 46 -157 118 -94 188 24 28 36 32 90 36 47
3 76 -1 122 -18 58 -21 61 -21 74 -4 11 16 10 20 -6 32 -49 34 -168 57 -226
43z"/>
</g>
</svg>
